HIERARCHY
ROOT Hips
{
	OFFSET 0.000000 0.000000 0.000000
	CHANNELS 6 Xposition Yposition Zposition Zrotation Yrotation Xrotation 
	JOINT LHipJoint
	{
		OFFSET 0.000000 0.000000 0.000000
		CHANNELS 3 Zrotation Yrotation Xrotation
		JOINT LeftUpLeg
		{
			OFFSET 8.178360 -10.767780 5.035740
			CHANNELS 3 Zrotation Yrotation Xrotation
			JOINT LeftLeg
			{
				OFFSET 14.688660 -40.356780 0.000000
				CHANNELS 3 Zrotation Yrotation Xrotation
				JOINT LeftFoot
				{
					OFFSET 15.373200 -42.237540 0.000000
					CHANNELS 3 Zrotation Yrotation Xrotation
					JOINT LeftToeBase
					{
						OFFSET 0.945840 -2.598660 13.935300
						CHANNELS 3 Zrotation Yrotation Xrotation
						End Site
						{
							OFFSET 0.000000 0.000000 0.000000
						}
					}
				}
			}
		}
	}
	JOINT RHipJoint
	{
		OFFSET 0.000000 0.000000 0.000000
		CHANNELS 3 Zrotation Yrotation Xrotation
		JOINT RightUpLeg
		{
			OFFSET -7.833120 -10.767780 5.035740
			CHANNELS 3 Zrotation Yrotation Xrotation
			JOINT RightLeg
			{
				OFFSET -15.255180 -41.913300 0.000000
				CHANNELS 3 Zrotation Yrotation Xrotation
				JOINT RightFoot
				{
					OFFSET -15.409560 -42.337380 0.000000
					CHANNELS 3 Zrotation Yrotation Xrotation
					JOINT RightToeBase
					{
						OFFSET -0.988380 -2.715540 14.178900
						CHANNELS 3 Zrotation Yrotation Xrotation
						End Site
						{
							OFFSET 0.000000 0.000000 0.000000
						}
					}
				}
			}
		}
	}
	JOINT LowerBack
	{
		OFFSET 0.000000 0.000000 0.000000
		CHANNELS 3 Zrotation Yrotation Xrotation
		JOINT Spine
		{
			OFFSET 0.169620 12.213540 -1.160280
			CHANNELS 3 Zrotation Yrotation Xrotation
			JOINT Spine1
			{
				OFFSET 0.340320 12.293100 -0.256500
				CHANNELS 3 Zrotation Yrotation Xrotation
				JOINT Neck
				{
					OFFSET 0.000000 0.000000 0.000000
					CHANNELS 3 Zrotation Yrotation Xrotation
					JOINT Neck1
					{
						OFFSET -0.325020 10.477440 1.032120
						CHANNELS 3 Zrotation Yrotation Xrotation
						JOINT Head
						{
							OFFSET 0.624420 10.568160 -0.743820
							CHANNELS 3 Zrotation Yrotation Xrotation
							End Site
							{
								OFFSET 0.000000 0.000000 0.000000
							}
						}
					}
				}
				JOINT LeftShoulder
				{
					OFFSET 0.000000 0.000000 0.000000
					CHANNELS 3 Zrotation Yrotation Xrotation
					JOINT LeftArm
					{
						OFFSET 20.174460 7.205340 -1.867260
						CHANNELS 3 Zrotation Yrotation Xrotation
						JOINT LeftForeArm
						{
							OFFSET 29.898000 -0.000000 -0.000000
							CHANNELS 3 Zrotation Yrotation Xrotation
							JOINT LeftHand
							{
								OFFSET 20.901360 -0.000000 -0.000000
								CHANNELS 3 Zrotation Yrotation Xrotation
								JOINT LeftFingerBase
								{
									OFFSET 0.000000 0.000000 0.000000
									CHANNELS 3 Zrotation Yrotation Xrotation
									JOINT LeftHandIndex1
									{
										OFFSET 4.291560 -0.000000 -0.000000
										CHANNELS 3 Zrotation Yrotation Xrotation
										End Site
										{
											OFFSET 0.000000 0.000000 0.000000
										}
									}
								}
								JOINT LThumb
								{
									OFFSET 0.000000 0.000000 0.000000
									CHANNELS 3 Zrotation Yrotation Xrotation
									End Site
									{
										OFFSET 0.000000 0.000000 0.000000
									}
								}
							}
						}
					}
				}
				JOINT RightShoulder
				{
					OFFSET 0.000000 0.000000 0.000000
					CHANNELS 3 Zrotation Yrotation Xrotation
					JOINT RightArm
					{
						OFFSET -18.819600 8.244300 -2.427900
						CHANNELS 3 Zrotation Yrotation Xrotation
						JOINT RightForeArm
						{
							OFFSET -31.451400 -0.000000 -0.000000
							CHANNELS 3 Zrotation Yrotation Xrotation
							JOINT RightHand
							{
								OFFSET -20.665020 -0.000000 -0.000000
								CHANNELS 3 Zrotation Yrotation Xrotation
								JOINT RightFingerBase
								{
									OFFSET 0.000000 0.000000 0.000000
									CHANNELS 3 Zrotation Yrotation Xrotation
									JOINT RightHandIndex1
									{
										OFFSET -3.735180 -0.000000 -0.000000
										CHANNELS 3 Zrotation Yrotation Xrotation
										End Site
										{
											OFFSET 0.000000 0.000000 0.000000
										}
									}
								}
								JOINT RThumb
								{
									OFFSET 0.000000 0.000000 0.000000
									CHANNELS 3 Zrotation Yrotation Xrotation
									End Site
									{
										OFFSET 0.000000 0.000000 0.000000
									}
								}
							}
						}
					}
				}
			}
		}
	}
}
MOTION
Frames:	11
Frame Time:	0.0333333
-237.766242 102.071544 117.473886 -176.933364 -0.509342 -176.662841 -1.744716 -2.874986 -1.359183 -12.593919 36.173877 -46.515769 12.293968 17.611591 56.794824 3.141302 0.089786 7.570942 5.390900 -13.810900 -42.485200 2.059492 3.378052 -1.055495 18.714476 -35.878131 -47.874428 -12.600836 -17.833625 59.088956 2.776116 -10.461849 6.287929 -0.016300 -0.823900 2.264500 1.629676 0.907677 5.669681 1.230827 1.695085 -4.907469 0.451710 0.946574 -8.473315 -7.256214 -4.551704 -13.468368 7.809058 -5.518258 8.157368 0.897900 -2.516400 9.650500 4.871442 -7.884516 -1.532413 -1.875473 -7.244710 58.529909 123.681312 -58.563448 -97.225083 -2.143541 -1.854782 -16.321435 52.035895 -12.680923 -13.933300 -7.125000 0.000000 0.000000 18.499500 13.412600 -14.496400 0.193142 9.750422 -1.277223 -1.224379 1.656742 57.152853 -112.560392 60.733380 -90.518773 -2.636538 3.218596 -3.232129 -60.040123 39.776076 -43.004100 7.125000 0.000000 0.000000 -12.182400 22.807000 -16.221900 
-237.749700 102.255870 117.495942 -176.990131 -0.464224 -176.667927 -1.810448 -2.853991 -1.320030 -12.602531 36.207612 -46.412725 12.172993 17.566865 56.461811 3.415884 -0.360769 7.989306 5.210300 -13.616800 -41.723600 2.127625 3.367927 -1.031969 18.685503 -35.893894 -47.774368 -12.495806 -17.789016 58.700601 2.867001 -10.656328 6.639051 -0.013900 -0.762000 2.094200 1.544325 0.937791 5.676490 1.217037 1.732959 -4.910429 0.424225 0.961363 -8.506660 -7.242438 -4.469525 -13.503494 7.882395 -5.400721 8.189880 0.963100 -2.454200 9.694300 4.869842 -7.885124 -1.532478 -1.783735 -7.244029 58.413456 123.717353 -58.566448 -97.254922 -2.128687 -1.855573 -16.248495 52.007048 -12.666733 -13.883900 -7.125000 0.000000 0.000000 18.478900 13.460500 -14.458600 0.174417 9.769795 -1.292215 -1.263945 1.590901 56.995929 -112.351018 60.829248 -90.425273 -2.617301 3.220002 -3.259723 -59.884426 39.749189 -42.821400 7.125000 0.000000 0.000000 -12.137600 22.663000 -16.144500 
-237.728436 102.445710 117.501456 -177.016791 -0.433300 -176.697625 -1.886375 -2.823987 -1.275747 -12.552328 36.233087 -46.240659 12.033199 17.514797 56.063836 3.655424 -0.739572 8.434528 5.044400 -13.433600 -41.013900 2.207664 3.356672 -1.002853 18.608057 -35.866582 -47.585766 -12.380698 -17.749397 58.318149 2.924035 -10.790721 6.882830 -0.011900 -0.705600 1.939200 1.503161 0.973508 5.684652 1.208090 1.777341 -4.902604 0.379662 0.976811 -8.501897 -7.217938 -4.378428 -13.508860 7.902321 -5.275335 8.184026 0.986300 -2.392100 9.684100 4.874147 -7.897937 -1.519034 -1.760175 -7.306080 58.382802 123.682312 -58.584195 -97.229992 -2.118617 -1.849952 -16.218826 51.899938 -12.841962 -14.054700 -7.125000 0.000000 0.000000 18.357200 13.227700 -14.447600 0.157204 9.779012 -1.310383 -1.355483 1.533535 56.845299 -112.119729 60.958070 -90.319027 -2.599938 3.230979 -3.248289 -59.721429 39.751331 -42.642200 7.125000 0.000000 0.000000 -12.079300 22.534500 -16.050300 
-237.696924 102.630036 117.498306 -176.986717 -0.421693 -176.753044 -1.955794 -2.793592 -1.238227 -12.441129 36.248945 -46.044969 11.911079 17.465404 55.686250 3.709548 -0.786146 8.792239 4.914800 -13.287200 -40.453300 2.307922 3.360848 -0.966019 18.530009 -35.769077 -47.328442 -12.256946 -17.713545 57.949099 2.979146 -10.919109 7.104396 -0.014200 -0.768900 2.113100 1.511367 0.988692 5.725777 1.208279 1.797655 -4.891963 0.329604 0.977976 -8.486614 -7.144107 -4.267590 -13.521907 7.885086 -5.136891 8.177977 0.968400 -2.322700 9.668400 4.883937 -7.913042 -1.502171 -1.774300 -7.353996 58.448277 123.684466 -58.573974 -97.215279 -2.113534 -1.862060 -16.372674 51.748568 -12.885047 -14.032100 -7.125000 0.000000 0.000000 18.255800 13.217100 -14.362800 0.146250 9.780399 -1.324892 -1.480917 1.512878 56.774279 -112.035159 61.043449 -90.291387 -2.601384 3.255645 -3.193873 -59.617661 39.818359 -42.553000 7.125000 0.000000 0.000000 -12.012600 22.505200 -15.955600 
-237.666990 102.806490 117.495156 -176.989965 -0.444873 -176.776094 -2.035839 -2.794009 -1.210667 -12.357728 36.193037 -45.859788 11.783440 17.411598 55.324859 3.763678 -0.835219 9.110009 4.692700 -13.029100 -39.477500 2.406115 3.378044 -0.936260 18.440352 -35.656289 -47.091216 -12.142126 -17.670959 57.582937 3.139764 -11.219417 7.254546 -0.011500 -0.691200 1.899500 1.473578 0.988443 5.780231 1.207421 1.793755 -4.885568 0.285021 0.971083 -8.494058 -7.045656 -4.159164 -13.519959 7.877511 -5.007327 8.136222 0.947300 -2.254800 9.624100 4.893900 -7.928382 -1.483912 -1.768035 -7.397530 58.528702 123.712171 -58.554281 -97.215525 -2.098294 -1.876314 -16.523458 51.531273 -12.947390 -13.993600 -7.125000 0.000000 0.000000 18.104500 13.206300 -14.234600 0.137251 9.781350 -1.334072 -1.597479 1.476978 56.756568 -112.047760 61.095541 -90.323089 -2.615531 3.282006 -3.095093 -59.631506 39.886528 -42.583700 7.125000 0.000000 0.000000 -11.991100 22.556100 -15.931600 
-237.627606 102.986088 117.494370 -177.010661 -0.482199 -176.749076 -2.120811 -2.828067 -1.195734 -12.318398 36.080057 -45.714361 11.652603 17.348564 54.962707 3.633411 -0.556721 9.383011 4.436400 -12.719500 -38.327200 2.499321 3.417792 -0.922099 18.352599 -35.512269 -46.893676 -12.052056 -17.624280 57.235428 3.619423 -12.035630 7.160703 0.000000 -0.025700 0.070600 1.389110 0.986522 5.845203 1.203074 1.785028 -4.881889 0.267986 0.963927 -8.512330 -7.013414 -4.112151 -13.527370 7.945121 -4.934184 8.054799 0.990800 -2.211500 9.565600 4.891185 -7.934768 -1.466465 -1.747770 -7.439912 58.550555 123.762723 -58.527326 -97.233789 -2.081937 -1.883493 -16.555779 51.380973 -12.966428 -13.931800 -7.125000 0.000000 0.000000 18.001700 13.239100 -14.131600 0.122895 9.786265 -1.338669 -1.671596 1.401712 56.717368 -112.067512 61.137417 -90.367022 -2.626868 3.301566 -3.013440 -59.640104 39.923290 -42.594500 7.125000 0.000000 0.000000 -11.978700 22.578300 -15.917000 
-237.592158 103.153872 117.494370 -177.012648 -0.513603 -176.706733 -2.194944 -2.868601 -1.187975 -12.279136 35.960854 -45.594930 11.540737 17.289301 54.642259 3.415084 -0.129202 9.619132 4.181200 -12.397700 -37.153700 2.590091 3.467971 -0.912994 18.287271 -35.351173 -46.721514 -11.963635 -17.578736 56.913409 3.984520 -12.662026 7.172844 -0.003800 0.396400 -1.089100 1.329084 0.996484 5.945695 1.196013 1.796924 -4.881226 0.238555 0.964240 -8.564428 -7.003116 -4.114033 -13.504465 8.024262 -4.924322 7.940038 1.042200 -2.199200 9.484400 4.883791 -7.943261 -1.446100 -1.722295 -7.485110 58.546741 123.837090 -58.487633 -97.264242 -2.074699 -1.894328 -16.645768 51.313407 -12.893536 -13.799300 -7.125000 0.000000 0.000000 17.981300 13.381100 -14.056900 0.112445 9.787940 -1.344015 -1.715334 1.278899 56.715670 -112.058771 61.186038 -90.397583 -2.632563 3.313596 -3.011034 -59.582118 39.930688 -42.521600 7.125000 0.000000 0.000000 -11.950900 22.530000 -15.873600 
-237.581130 103.299600 117.488064 -176.991586 -0.493267 -176.661784 -2.249678 -2.892604 -1.179451 -12.246021 35.897547 -45.511509 11.453992 17.241677 54.384256 3.281365 0.138753 9.850633 3.930700 -12.067600 -35.971500 2.674549 3.511371 -0.901546 18.243291 -35.203849 -46.568422 -11.841217 -17.534363 56.609325 3.736759 -12.288441 7.599653 -0.002300 -0.308400 0.847300 1.306810 1.011852 6.078079 1.186266 1.821261 -4.883011 0.192007 0.967468 -8.643713 -6.994572 -4.136009 -13.471643 8.104975 -4.945383 7.832843 1.096300 -2.202200 9.415000 4.872847 -7.954515 -1.434969 -1.690186 -7.484041 58.530524 123.875095 -58.476531 -97.282916 -2.077845 -1.904109 -16.685869 51.339638 -12.754174 -13.630500 -7.125000 0.000000 0.000000 18.041500 13.592400 -14.024200 0.106413 9.793122 -1.345771 -1.717752 1.188553 56.749200 -111.963109 61.235515 -90.361352 -2.623480 3.320620 -3.002883 -59.453790 39.931166 -42.381700 7.125000 0.000000 0.000000 -11.898800 22.435900 -15.791900 
-237.588222 103.422486 117.470736 -176.964738 -0.416795 -176.616819 -2.288638 -2.898248 -1.166808 -12.258315 35.923552 -45.493112 11.396319 17.205680 54.181867 3.091245 0.500763 10.035069 3.762200 -11.837000 -35.157800 2.741149 3.543058 -0.894362 18.218103 -35.084697 -46.450230 -11.740018 -17.497949 56.340506 3.639381 -12.157189 7.881651 -0.011400 -0.689400 1.894500 1.297311 1.044954 6.217214 1.178251 1.868341 -4.882519 0.160243 0.984513 -8.732550 -7.002255 -4.157392 -13.385908 8.147640 -4.971509 7.714885 1.126400 -2.213900 9.319700 4.867544 -7.976975 -1.425124 -1.660133 -7.469474 58.514333 123.875737 -58.488164 -97.283400 -2.081399 -1.914190 -16.742943 51.339007 -12.664359 -13.511600 -7.125000 0.000000 0.000000 18.072600 13.737100 -13.992600 0.104265 9.797010 -1.345483 -1.731268 1.145199 56.823529 -111.822612 61.295089 -90.279970 -2.607245 3.324295 -3.024748 -59.277552 39.915024 -42.185200 7.125000 0.000000 0.000000 -11.835800 22.294000 -15.690200 
-237.615000 103.560336 117.433710 -177.003834 -0.312468 -176.540819 -2.344942 -2.907948 -1.141671 -12.360156 35.972251 -45.508221 11.315998 17.161255 53.941551 2.964179 0.756682 10.251562 3.571000 -11.566600 -34.215400 2.786460 3.561384 -0.900082 18.154502 -35.005982 -46.370450 -11.661160 -17.459277 56.064985 3.697890 -12.284786 8.091806 -0.011400 -0.689300 1.894400 1.243548 1.088163 6.308604 1.165041 1.923326 -4.882811 0.138557 1.009145 -8.803581 -7.061318 -4.202252 -13.320157 8.195700 -5.020792 7.663147 1.172900 -2.239500 9.280900 4.859050 -7.995348 -1.419973 -1.630096 -7.494621 58.488966 123.814428 -58.524344 -97.246954 -2.083084 -1.920838 -16.719460 51.266503 -12.662128 -13.467200 -7.125000 0.000000 0.000000 18.033000 13.773300 -13.943800 0.090612 9.814875 -1.348322 -1.758649 1.134879 56.879159 -111.590529 61.376107 -90.142641 -2.582553 3.334984 -2.921334 -59.125080 39.919903 -42.028100 7.125000 0.000000 0.000000 -11.778900 22.186500 -15.600600 
-237.660690 103.702914 117.384876 -177.019543 -0.216809 -176.417473 -2.398875 -2.927152 -1.122930 -12.445499 35.982032 -45.517729 11.219407 17.107740 53.674751 2.953172 0.811933 10.492334 3.324300 -11.202400 -32.965600 2.831336 3.586664 -0.909763 18.131702 -34.945340 -46.344220 -11.576704 -17.414853 55.776344 3.685403 -12.301917 8.408132 -0.014700 -0.783000 2.152000 1.206145 1.112418 6.340433 1.151952 1.956656 -4.887474 0.108387 1.021058 -8.837080 -7.051298 -4.266210 -13.353184 8.260877 -5.110800 7.706253 1.210900 -2.274400 9.341200 4.853033 -7.994900 -1.425111 -1.569038 -7.504889 58.428270 123.815961 -58.533054 -97.248246 -2.082662 -1.935391 -16.785675 51.216624 -12.570679 -13.317000 -7.125000 0.000000 0.000000 18.034300 13.943100 -13.876300 0.076789 9.839310 -1.353015 -1.742611 1.156987 56.875894 -111.330473 61.432963 -89.986573 -2.547623 3.347911 -2.728339 -58.922011 39.934941 -41.831000 7.125000 0.000000 0.000000 -11.693900 22.064000 -15.471200 
